<?xml version="1.0" standalone="no"?>
<svg xmlns:xlink="http://www.w3.org/1999/xlink" id="wave" style="transform:rotate(180deg); transition: 0.3s" viewBox="0 0 1440 490" version="1.1" xmlns="http://www.w3.org/2000/svg"><defs><linearGradient id="sw-gradient-0" x1="0" x2="0" y1="1" y2="0"><stop stop-color="rgba(59, 66, 82, 1)" offset="0%"/><stop stop-color="rgba(59, 66, 82, 1)" offset="100%"/></linearGradient></defs><path style="transform:translate(0, 0px); opacity:1" fill="url(#sw-gradient-0)" d="M0,98L80,130.7C160,163,320,229,480,277.7C640,327,800,359,960,343C1120,327,1280,261,1440,261.3C1600,261,1760,327,1920,343C2080,359,2240,327,2400,326.7C2560,327,2720,359,2880,351.2C3040,343,3200,294,3360,277.7C3520,261,3680,278,3840,269.5C4000,261,4160,229,4320,196C4480,163,4640,131,4800,130.7C4960,131,5120,163,5280,179.7C5440,196,5600,196,5760,212.3C5920,229,6080,261,6240,228.7C6400,196,6560,98,6720,57.2C6880,16,7040,33,7200,89.8C7360,147,7520,245,7680,302.2C7840,359,8000,376,8160,334.8C8320,294,8480,196,8640,155.2C8800,114,8960,131,9120,122.5C9280,114,9440,82,9600,81.7C9760,82,9920,114,10080,155.2C10240,196,10400,245,10560,285.8C10720,327,10880,359,11040,375.7C11200,392,11360,392,11440,392L11520,392L11520,490L11440,490C11360,490,11200,490,11040,490C10880,490,10720,490,10560,490C10400,490,10240,490,10080,490C9920,490,9760,490,9600,490C9440,490,9280,490,9120,490C8960,490,8800,490,8640,490C8480,490,8320,490,8160,490C8000,490,7840,490,7680,490C7520,490,7360,490,7200,490C7040,490,6880,490,6720,490C6560,490,6400,490,6240,490C6080,490,5920,490,5760,490C5600,490,5440,490,5280,490C5120,490,4960,490,4800,490C4640,490,4480,490,4320,490C4160,490,4000,490,3840,490C3680,490,3520,490,3360,490C3200,490,3040,490,2880,490C2720,490,2560,490,2400,490C2240,490,2080,490,1920,490C1760,490,1600,490,1440,490C1280,490,1120,490,960,490C800,490,640,490,480,490C320,490,160,490,80,490L0,490Z"/><defs><linearGradient id="sw-gradient-1" x1="0" x2="0" y1="1" y2="0"><stop stop-color="rgba(67, 76, 94, 1)" offset="0%"/><stop stop-color="rgba(67, 76, 94, 1)" offset="100%"/></linearGradient></defs><path style="transform:translate(0, 50px); opacity:0.9" fill="url(#sw-gradient-1)" d="M0,196L80,179.7C160,163,320,131,480,171.5C640,212,800,327,960,351.2C1120,376,1280,310,1440,277.7C1600,245,1760,245,1920,261.3C2080,278,2240,310,2400,294C2560,278,2720,212,2880,220.5C3040,229,3200,310,3360,285.8C3520,261,3680,131,3840,122.5C4000,114,4160,229,4320,269.5C4480,310,4640,278,4800,253.2C4960,229,5120,212,5280,179.7C5440,147,5600,98,5760,81.7C5920,65,6080,82,6240,106.2C6400,131,6560,163,6720,196C6880,229,7040,261,7200,236.8C7360,212,7520,131,7680,155.2C7840,180,8000,310,8160,367.5C8320,425,8480,408,8640,359.3C8800,310,8960,229,9120,204.2C9280,180,9440,212,9600,187.8C9760,163,9920,82,10080,98C10240,114,10400,229,10560,236.8C10720,245,10880,147,11040,98C11200,49,11360,49,11440,49L11520,49L11520,490L11440,490C11360,490,11200,490,11040,490C10880,490,10720,490,10560,490C10400,490,10240,490,10080,490C9920,490,9760,490,9600,490C9440,490,9280,490,9120,490C8960,490,8800,490,8640,490C8480,490,8320,490,8160,490C8000,490,7840,490,7680,490C7520,490,7360,490,7200,490C7040,490,6880,490,6720,490C6560,490,6400,490,6240,490C6080,490,5920,490,5760,490C5600,490,5440,490,5280,490C5120,490,4960,490,4800,490C4640,490,4480,490,4320,490C4160,490,4000,490,3840,490C3680,490,3520,490,3360,490C3200,490,3040,490,2880,490C2720,490,2560,490,2400,490C2240,490,2080,490,1920,490C1760,490,1600,490,1440,490C1280,490,1120,490,960,490C800,490,640,490,480,490C320,490,160,490,80,490L0,490Z"/></svg>